custom-analysis
version=1
nRows=5
nColumns=42
inDegrees=no

This file contains tibia displacement and acting force.

Units are S.I. units (seconds, meters, Newtons, ...)
Angles are in degrees.

endheader
time	APT	SIT	knee_angle	aACL_R_force	pACL_R_force	aPCL_R_force	pPCL_R_force	aMCL_R_force	mMCL_R_force	pMCL_R_force	aLCL_R_force	mLCL_R_force	pLCL_R_force	aACL_R_length	pACL_R_length	aPCL_R_length	pPCL_R_length	aMCL_R_length	mMCL_R_length	pMCL_R_length	aLCL_R_length	mLCL_R_length	pLCL_R_length	aACL_R_strain	pACL_R_strain	aPCL_R_strain	pPCL_R_strain	aMCL_R_strain	mMCL_R_strain	pMCL_R_strain	aLCL_R_strain	mLCL_R_strain	pLCL_R_strain	femur_lat_meniscii_force_r	femur_lat_meniscii_torque_r	femur_med_meniscii_force_r	femur_med_meniscii_torque_r	femur_lat_tibia_force_r	femur_lat_tibia_torque_r	femur_med_tibia_force_r	femur_med_tibia_torque_r
      0.23493852	      0.00181257	      0.00026532	      1.66574369	     21.92806049	     50.20127789	      0.00000000	      0.00000000	      0.00000000	      1.01303122	     11.50033583	      4.81109103	      0.00000000	      5.99347325	      0.03339245	      0.02772312	      0.02823511	      0.02870256	      0.05586298	      0.06076626	      0.06316971	      0.05642874	      0.05496233	      0.05315065	      0.05320690	      0.07210034	     -0.09198131	     -0.04603987	     -0.03729324	      0.01626868	      0.04020733	      0.00806657	     -0.02408208	      0.01543577	     75.93626369	     14.11278698	    105.08676188	     18.99865861	      0.00000000	      0.00000000	      6.46856070	      0.16607110
      0.23531649	      0.00181247	      0.00026478	      1.66574369	     21.94083983	     50.24089001	      0.00000000	      0.00000000	      0.00000000	      0.95952820	     11.44410808	      4.62412095	      0.00000000	      5.80714168	      0.03339312	      0.02772388	      0.02823564	      0.02870300	      0.05586254	      0.06076585	      0.06316937	      0.05643053	      0.05496416	      0.05315251	      0.05322805	      0.07212986	     -0.09196448	     -0.04602532	     -0.03730084	      0.01626188	      0.04020172	      0.00809847	     -0.02404952	      0.01547123	     75.82938999	     14.09653310	    105.12164571	     19.00149604	      0.00000000	      0.00000000	      6.47348001	      0.16621181
      0.23608191	      0.00181229	      0.00026375	      1.66574369	     21.96278788	     50.31150653	      0.00000000	      0.00000000	      0.00000000	      0.94765376	     11.42452867	      4.48378780	      0.00000000	      5.66797737	      0.03339446	      0.02772542	      0.02823661	      0.02870380	      0.05586162	      0.06076500	      0.06316865	      0.05643401	      0.05496774	      0.05315612	      0.05327041	      0.07218925	     -0.09193325	     -0.04599864	     -0.03731678	      0.01624762	      0.04018983	      0.00816060	     -0.02398607	      0.01554034	     75.54785418	     14.04362999	    105.16673301	     19.00059388	      0.00000000	      0.00000000	      6.48973989	      0.16630985
      0.23721145	      0.00181198	      0.00026227	      1.66574369	     21.98990320	     50.40538274	      0.00000000	      0.00000000	      0.00000000	      0.97993128	     11.44496579	      4.40299904	      0.00000000	      5.58933651	      0.03339640	      0.02772764	      0.02823801	      0.02870496	      0.05586028	      0.06076377	      0.06316760	      0.05643900	      0.05497286	      0.05316131	      0.05333142	      0.07227505	     -0.09188832	     -0.04596025	     -0.03733988	      0.01622697	      0.04017256	      0.00824978	     -0.02389504	      0.01563948	     75.12925759	     13.97325585	    105.21508885	     18.99526157	      0.00000000	      0.00000000	      6.51364505	      0.16693962
      0.24089414	      0.00181059	      0.00025756	      1.66574369	     22.03149135	     50.63856737	      0.00000000	      0.00000000	      0.00000000	      1.04577319	     11.47895800	      4.14763341	      0.00000000	      5.34560330	      0.03340215	      0.02773426	      0.02824274	      0.02870891	      0.05585633	      0.06076014	      0.06316452	      0.05645466	      0.05498893	      0.05317757	      0.05351293	      0.07253111	     -0.09173612	     -0.04582871	     -0.03740791	      0.01616631	      0.04012189	      0.00852961	     -0.02360981	      0.01595001	     73.81434123	     13.74929916	    105.32639628	     18.97467294	      0.00000000	      0.00000000	      6.55848035	      0.16813162
